<svg xmlns="http://www.w3.org/2000/svg" x="0" y="0" enable-background="new 0 0 512 512" version="1.1" viewBox="0 0 512 512" xml:space="preserve"><path fill="#CEBCBF" d="M305.265 256.178c.045-8.668-2.238-17.246-6.603-24.808-4.362-7.557-10.646-13.861-18.181-18.12-7.885-4.466-10.054-15.031-4.372-22.28 18.566-23.694 41.204-43.341 67.283-58.397l47.978-27.704c29.887-17.268 68.669-7.443 86.331 23.129 17.452 30.228 7.152 68.858-23.133 86.336l-47.977 27.704c-26.068 15.049-54.4 24.828-84.213 29.068-9.08 1.292-17.159-5.796-17.113-14.928z"/><path fill="#CEBCBF" d="M280.477 298.755c7.529-4.294 13.816-10.561 18.184-18.121 4.364-7.555 6.682-16.15 6.603-24.804-.075-9.062 7.991-16.222 17.11-14.926 29.802 4.233 58.135 14.016 84.214 29.074l47.98 27.7c29.897 17.25 40.778 55.749 23.132 86.33-17.454 30.227-56.058 40.62-86.337 23.13l-47.979-27.7c-26.066-15.052-48.7-34.7-67.278-58.399-5.661-7.218-3.562-17.758 4.371-22.284z"/><path fill="#DFCECC" d="M206.735 255.822c-.045 8.668 2.238 17.246 6.603 24.808 4.362 7.557 10.646 13.861 18.181 18.12 7.885 4.466 10.054 15.031 4.372 22.28-18.566 23.694-41.204 43.341-67.283 58.397l-47.978 27.704c-29.887 17.268-68.669 7.443-86.331-23.129-17.452-30.228-7.152-68.858 23.133-86.336l47.977-27.704c26.068-15.049 54.4-24.828 84.213-29.068 9.08-1.292 17.159 5.796 17.113 14.928z"/><path fill="#DFCECC" d="M231.523 213.245c-7.529 4.295-13.816 10.561-18.184 18.121-4.364 7.555-6.682 16.15-6.603 24.804.075 9.062-7.991 16.222-17.11 14.926-29.802-4.233-58.135-14.016-84.214-29.074l-47.98-27.7c-29.897-17.25-40.778-55.749-23.132-86.33 17.454-30.227 56.058-40.62 86.337-23.13l47.979 27.7c26.066 15.052 48.7 34.7 67.278 58.399 5.661 7.218 3.562 17.758-4.371 22.284z"/><path fill="#EFE0D9" d="M213.246 280.478c4.295 7.529 10.561 13.816 18.122 18.183 7.556 4.363 16.15 6.681 24.805 6.602 9.062-.075 16.222 7.99 14.927 17.109-4.232 29.802-14.013 58.136-29.07 84.215l-27.698 47.981c-17.249 29.898-55.747 40.781-86.329 23.135-30.228-17.453-40.623-56.056-23.134-86.336l27.698-47.981c15.051-26.067 34.698-48.702 58.396-67.28 7.216-5.658 17.757-3.56 22.283 4.372z"/><path fill="#DFCECC" d="M255.819 305.265c8.668.046 17.246-2.237 24.808-6.601 7.557-4.361 13.862-10.645 18.121-18.179 4.466-7.885 15.032-10.053 22.28-4.371 23.693 18.567 43.338 41.206 58.393 67.286l27.701 47.979c17.266 29.888 7.439 68.669-23.134 86.33-30.229 17.45-68.858 7.148-86.335-23.139l-27.701-47.979c-15.047-26.069-24.825-54.401-29.063-84.214-1.291-9.08 5.798-17.158 14.93-17.112zM298.754 231.522c-4.295-7.529-10.561-13.816-18.122-18.183-7.556-4.363-16.15-6.681-24.805-6.602-9.062.075-16.222-7.99-14.927-17.109 4.232-29.802 14.013-58.136 29.07-84.215l27.698-47.981c17.249-29.898 55.747-40.781 86.329-23.135 30.228 17.453 40.623 56.056 23.134 86.336l-27.698 47.981c-15.051 26.067-34.698 48.702-58.396 67.28-7.216 5.658-17.757 3.56-22.283-4.372z"/><path fill="#EFE0D9" d="M256.181 206.735c-8.668-.045-17.246 2.237-24.808 6.601-7.557 4.361-13.862 10.645-18.121 18.179-4.466 7.885-15.032 10.053-22.28 4.371-23.692-18.567-43.338-41.206-58.393-67.286l-27.701-47.979c-17.266-29.888-7.439-68.669 23.134-86.33 30.229-17.45 68.858-7.148 86.335 23.139l27.701 47.979c15.047 26.069 24.825 54.402 29.063 84.214 1.291 9.08-5.798 17.158-14.93 17.112z"/><path fill="#F5F0E8" d="M213.425 231.212c-4.373 7.484-6.685 16.054-6.686 24.785-.001 8.725 2.289 17.327 6.684 24.782 4.596 7.811 1.191 18.044-7.354 21.481-27.926 11.236-57.354 16.931-87.468 16.93l-55.402.002c-34.517.01-63.19-27.89-63.199-63.197.002-34.904 28.236-63.208 63.204-63.201l55.401-.002c30.1.002 59.526 5.7 87.464 16.935 8.51 3.421 11.962 13.6 7.356 21.485z"/><path fill="#EFE0D9" d="M298.575 280.788c4.373-7.484 6.685-16.054 6.686-24.785.001-8.725-2.289-17.327-6.684-24.783-4.596-7.811-1.191-18.044 7.354-21.481 27.926-11.236 57.354-16.931 87.468-16.93l55.402-.002c34.517-.01 63.19 27.89 63.199 63.197-.001 34.904-28.236 63.208-63.204 63.201l-55.401.002c-30.1-.002-59.526-5.7-87.464-16.935-8.51-3.42-11.962-13.599-7.356-21.484z"/><path fill="#F5F0E8" d="M280.789 213.425c-7.484-4.373-16.054-6.685-24.785-6.687-8.725-.001-17.327 2.289-24.783 6.684-7.811 4.596-18.044 1.19-21.481-7.355-11.235-27.926-16.93-57.355-16.928-87.468l-.001-55.402C192.802 28.681 220.702.008 256.01 0c34.904.002 63.207 28.238 63.2 63.205l.001 55.401c-.003 30.1-5.701 59.526-16.937 87.464-3.422 8.51-13.6 11.962-21.485 7.355z"/><path fill="#EFE0D9" d="m256.01 0-.021.001v206.738h.014c8.731.002 17.302 2.314 24.785 6.687 7.885 4.606 18.064 1.154 21.485-7.355 11.236-27.938 16.934-57.364 16.937-87.464l-.001-55.401C319.217 28.238 290.914.002 256.01 0z"/><path fill="#F5F0E8" d="M231.211 298.575c7.484 4.373 16.054 6.685 24.785 6.687 8.725.001 17.327-2.289 24.783-6.684 7.811-4.596 18.044-1.19 21.481 7.355 11.235 27.926 16.93 57.355 16.928 87.468l.001 55.402c.009 34.517-27.891 63.189-63.199 63.198-34.904-.002-63.207-28.238-63.2-63.205l-.001-55.401c.003-30.1 5.701-59.526 16.937-87.464 3.422-8.511 13.6-11.963 21.485-7.356z"/><path fill="#EFE0D9" d="m256.01 512-.021-.001V305.261h.014c8.731-.002 17.302-2.314 24.785-6.687 7.885-4.606 18.064-1.154 21.485 7.355 11.236 27.938 16.934 57.364 16.937 87.464l-.001 55.401c.008 34.968-28.295 63.204-63.199 63.206z"/><path fill="#FFDE00" d="M256.002 335.264c-43.708 0-79.267-35.559-79.267-79.268s35.559-79.268 79.267-79.268 79.267 35.56 79.267 79.268-35.559 79.268-79.267 79.268z"/><path fill="#FFBF00" d="M256.002 176.73h-.01v158.53h.01c43.71 0 79.27-35.56 79.27-79.26 0-43.71-35.56-79.27-79.27-79.27z"/><path fill="#FFF299" d="M256.002 206.728c-27.166 0-49.267 22.102-49.267 49.268s22.101 49.268 49.267 49.268 49.267-22.102 49.267-49.268-22.101-49.268-49.267-49.268z"/><path fill="#FFDE00" d="M305.272 256c0 27.16-22.1 49.26-49.27 49.26h-.01v-98.53h.01c27.17 0 49.27 22.1 49.27 49.27z"/></svg>