<svg xmlns="http://www.w3.org/2000/svg" viewBox="0 -21 512 512"><path fill="#c8afeb" d="M157.145 4.664c3.585-6.219 12.449-6.219 16.035 0 31.851 55.234 148.156 84.664 156.527 174.262 7.39 79.097-51.96 143.812-164.547 143.812-112.582 0-171.933-64.715-164.543-143.812C8.988 89.328 125.29 59.898 157.145 4.664zm0 0"/><path fill="#9678cd" d="M157.145 4.664C125.289 59.898 8.988 89.328.617 178.926c-7.39 79.097 51.961 143.812 164.543 143.812V0c-3.11 0-6.222 1.555-8.015 4.664zm0 0"/><path fill="#7d64b6" d="M43.973 129.305c.992-12.79 3.55-24.524 7.265-35.446-26.074 22.282-47.226 48.727-50.62 85.067-7.391 79.097 51.96 143.812 164.542 143.812v-25.043c-84.207-17.484-127.562-86.449-121.187-168.39zm0 0"/><path fill="#aa91dc" d="M160.754 4.664c1.969-6.219 6.844-6.219 8.816 0 17.52 55.234 81.489 84.664 86.09 174.262 4.067 79.097-28.578 143.812-90.5 143.812s-94.562-64.715-90.5-143.812c4.606-89.598 68.574-119.028 86.094-174.262zm0 0"/><path fill="#9678cd" d="M83.14 253.25c13.297 41.602 41.024 69.523 82.02 69.488 0 0 12.168-.023 20.645-.672l4.644-22.71c-37.418-.774-87.156-24.45-107.308-46.106zm0 0"/><path fill="#c8afeb" d="M338.82 152.637c3.586-6.219 12.45-6.219 16.035 0 31.856 55.23 148.157 84.664 156.528 174.261 7.39 79.098-51.961 143.813-164.543 143.813-112.582 0-171.938-64.715-164.547-143.813 8.371-89.597 124.676-119.03 156.527-174.261zm0 0"/><path fill="#fff6d8" d="M494.941 328.434c-4.441-47.512-46.011-76.766-86.214-105.059-21.329-15.008-41.75-29.379-56.465-46.273-2.832-3.254-8.012-3.254-10.844 0-14.719 16.894-35.137 31.265-56.465 46.273-40.203 28.293-81.777 57.547-86.215 105.059-2.953 31.597 6.016 59.851 25.93 81.714 25.871 28.403 69.262 44.047 122.172 44.047s96.297-15.644 122.172-44.047c19.914-21.863 28.879-50.117 25.93-81.714zm0 0"/><path fill="#e6646e" d="M478.496 329.973c-3.73-39.926-40.426-65.75-79.277-93.09-9.047-6.371-17.946-12.63-26.387-19.051a42.87 42.87 0 0 0-25.992-8.785c-9.149 0-18.293 2.93-25.992 8.785-8.446 6.422-17.34 12.68-26.391 19.05-38.848 27.34-75.543 53.161-79.273 93.09-2.508 26.844 4.992 50.72 21.695 69.055 14.02 15.395 34.328 26.45 59.16 32.66 20.84 5.211 41.492-9.359 43.867-30.707l2.727-24.535c.277-2.511 2.242-3.77 4.207-3.77 1.96 0 3.926 1.259 4.207 3.77l2.723 24.535c2.375 21.348 23.03 35.918 43.867 30.707 24.832-6.21 45.14-17.265 59.164-32.66 16.699-18.332 24.203-42.21 21.695-69.054zm0 0"/><path fill="#ff8087" d="M404.645 330.324c0-31.926-25.88-57.808-57.805-57.808-31.926 0-57.809 25.882-57.809 57.808 0 30.078 22.977 54.77 52.332 57.528l1.27-11.407c.277-2.511 2.242-3.765 4.207-3.765s3.93 1.254 4.207 3.765l1.27 11.407c29.351-2.758 52.328-27.45 52.328-57.528zm0 0"/><g fill="#ffaa5f"><path d="M267.879 371.785a8.241 8.241 0 0 1-6.524-3.187c-2.804-3.598-2.152-8.79 1.446-11.59l4.644-3.613c3.614-2.793 8.79-2.141 11.586 1.453 2.809 3.597 2.156 8.785-1.441 11.586l-4.645 3.613a8.251 8.251 0 0 1-5.066 1.738zM265.453 331.012a8.24 8.24 0 0 1-5.152-1.809l-2.582-2.066a8.26 8.26 0 0 1-1.29-11.606c2.86-3.558 8.048-4.14 11.61-1.289l2.582 2.067a8.26 8.26 0 0 1 1.29 11.605 8.25 8.25 0 0 1-6.458 3.098zM304.871 291.785a8.26 8.26 0 0 1-6.355-2.969l-2.582-3.097a8.26 8.26 0 0 1 1.058-11.63c3.524-2.925 8.719-2.444 11.637 1.056l2.582 3.097a8.26 8.26 0 0 1-1.059 11.63 8.236 8.236 0 0 1-5.28 1.913zM347.879 252.902a8.255 8.255 0 0 1-4.258-15.336l2.582-1.55a8.246 8.246 0 0 1 11.328 2.832 8.26 8.26 0 0 1-2.828 11.332l-2.582 1.547a8.24 8.24 0 0 1-4.242 1.175zM388.137 290.582a8.227 8.227 0 0 1-6.684-3.398 8.25 8.25 0 0 1 1.82-11.536l5.68-4.132c3.692-2.684 8.856-1.864 11.531 1.82 2.684 3.691 1.871 8.855-1.824 11.535L392.984 289a8.187 8.187 0 0 1-4.847 1.582zM418.402 323.441c-3.855 0-7.304-2.714-8.09-6.636l-1.03-5.164c-.895-4.47 2.007-8.82 6.476-9.715a8.248 8.248 0 0 1 9.719 6.476l1.03 5.16c.895 4.473-2.007 8.82-6.476 9.72a8.652 8.652 0 0 1-1.629.16zM437.152 359.742c-1.242 0-2.5-.277-3.683-.87l-4.13-2.067a8.256 8.256 0 0 1-3.694-11.078 8.26 8.26 0 0 1 11.082-3.696l4.128 2.067a8.256 8.256 0 0 1 3.696 11.078 8.262 8.262 0 0 1-7.399 4.566zm0 0"/></g><path fill="#ffc369" d="M409.46 397.078a8.255 8.255 0 0 1-8.257-8.258v-1.03a8.253 8.253 0 0 1 8.258-8.259 8.255 8.255 0 0 1 8.258 8.258v1.031a8.258 8.258 0 0 1-8.258 8.258zM310.371 346.84a8.254 8.254 0 0 1-7.098-4.02l-5-8.367a8.26 8.26 0 0 1 2.856-11.328c3.894-2.355 8.976-1.066 11.324 2.852l5 8.367c2.336 3.914 1.063 8.988-2.855 11.328a8.193 8.193 0 0 1-4.227 1.168zM357.168 330.84a8.243 8.243 0 0 1-6.613-3.3 8.248 8.248 0 0 1 1.656-11.563l2.062-1.547c3.645-2.754 8.825-1.996 11.555 1.648a8.246 8.246 0 0 1-1.652 11.559l-2.063 1.55a8.185 8.185 0 0 1-4.945 1.653zM301.41 400.516a8.218 8.218 0 0 1-4.539-1.364l-2.152-1.418c-3.809-2.511-4.856-7.632-2.348-11.441 2.516-3.797 7.629-4.86 11.445-2.348l2.153 1.418a8.26 8.26 0 0 1-4.559 15.153zm0 0"/><path fill="#ffaa5f" d="M339.953 295.227a8.185 8.185 0 0 1-4.945-1.653l-2.067-1.547a8.251 8.251 0 0 1-1.652-11.562c2.734-3.64 7.922-4.387 11.559-1.649l2.062 1.547a8.251 8.251 0 0 1 1.653 11.563 8.23 8.23 0 0 1-6.61 3.3zM383.492 361.809a8.26 8.26 0 0 1-7.394-4.567l-.516-1.031a8.26 8.26 0 1 1 14.773-7.387l.516 1.031a8.262 8.262 0 0 1-3.691 11.083 8.266 8.266 0 0 1-3.688.87zm0 0"/></svg>