<svg xmlns="http://www.w3.org/2000/svg" viewBox="0 0 512 512"><path fill="#92563a" d="M488 72a16 16 0 0 1-16 16H325.26A47.193 47.193 0 0 1 320 98.51 47.9 47.9 0 0 1 280 120h-48a48 48 0 1 1 0-96h48a47.982 47.982 0 0 1 45.26 32H472a15.979 15.979 0 0 1 16 16z"/><g fill="#7a432a"><path d="M232 24v48a8 8 0 0 1-16 0V26.73A47.873 47.873 0 0 1 232 24zM256 80a8 8 0 0 1-8-8V24h16v48a8 8 0 0 1-8 8zM296 26.74V72a8 8 0 0 1-16 0V24a47.628 47.628 0 0 1 16 2.74z"/></g><path fill="#fae890" d="M408 323.14a110.853 110.853 0 0 1-7.56 40.3L353.98 482.9a7.992 7.992 0 0 1-7.45 5.1H165.47a7.992 7.992 0 0 1-7.45-5.1l-38.96-100.18-7.5-19.28a111.174 111.174 0 0 1 31.27-124.72L160 224v-40h192v40l13.96 11.97 3.21 2.75A111.144 111.144 0 0 1 408 323.14z"/><path fill="#f5df73" d="M408 323.14a110.853 110.853 0 0 1-7.56 40.3L353.98 482.9a7.992 7.992 0 0 1-7.45 5.1H165.47a7.992 7.992 0 0 1-7.45-5.1l-38.96-100.18c91.07-19.35 179.39-63.72 246.9-146.75l3.21 2.75A111.144 111.144 0 0 1 408 323.14z"/><path fill="#ffb531" d="M408 323.14a110.853 110.853 0 0 1-7.56 40.3L353.98 482.9a7.992 7.992 0 0 1-7.45 5.1H165.47a7.992 7.992 0 0 1-7.45-5.1l-38.96-100.18-7.5-19.28a111.232 111.232 0 0 1-4.2-67.44H216a24.006 24.006 0 0 0 24-24V120h-8a48.06 48.06 0 0 1-45.27-32h138.53A47.193 47.193 0 0 1 320 98.51 47.9 47.9 0 0 1 280 120h-8v152a24.006 24.006 0 0 0 24 24h108.64a111.286 111.286 0 0 1 3.36 27.14z"/><path fill="#ffa912" d="M408 323.14a110.853 110.853 0 0 1-7.56 40.3L353.98 482.9a7.992 7.992 0 0 1-7.45 5.1H165.47a7.992 7.992 0 0 1-7.45-5.1l-38.96-100.18c66.02-14.03 130.58-41.2 186.83-86.72h98.75a111.286 111.286 0 0 1 3.36 27.14z"/><path fill="#f5df73" d="M340 216H196a12 12 0 0 0 0 24h144a12 12 0 0 0 0-24z"/><path fill="#edd561" d="M240 216h32v24h-32z"/><path fill="#ffcb73" d="M144 323.14a70.831 70.831 0 0 1 5.381-27.14h-17.03a86.078 86.078 0 0 0-1.715 5.85 87.225 87.225 0 0 0 3.293 52.891l15.617 40.159 14.912-5.8-15.618-40.16a70.847 70.847 0 0 1-4.84-25.8z"/><path fill="#ffef9e" d="m168.853 269.1 8.193-7.024-10.414-12.147-8.19 7.021a86.858 86.858 0 0 0-4.01 3.653l11.136 11.489a69.743 69.743 0 0 1 3.285-2.992zM150.5 293.425a71.567 71.567 0 0 1 7.886-13.214l-12.765-9.645a87.571 87.571 0 0 0-9.653 16.164 86 86 0 0 0-3.613 9.27h17.03c.354-.866.715-1.727 1.115-2.575z"/></svg>