<svg xmlns="http://www.w3.org/2000/svg" viewBox="0 0 512 512"><path fill="#02905d" d="M135.341 204.606a3.936 3.936 0 0 1 2.802-1.16c1.105 0 2.128.443 2.88 1.247a150.486 150.486 0 0 1 13.256 16.353 6.008 6.008 0 0 0 4.912 2.564 5.882 5.882 0 0 0 4.186-1.738l9.846-9.845a3.936 3.936 0 0 1 2.804-1.161c1.104 0 2.124.442 2.873 1.245a145.162 145.162 0 0 1 21.586 30.047 5.918 5.918 0 0 0 5.217 3.102c1.587 0 3.08-.62 4.205-1.746l4.65-4.65a3.946 3.946 0 0 1 2.807-1.162c1.104 0 2.121.442 2.866 1.246 18.207 19.629 30.235 44.584 34.784 72.167h1.973c4.549-27.583 16.577-52.538 34.784-72.167a3.868 3.868 0 0 1 2.866-1.246c1.061 0 2.057.413 2.807 1.162l4.65 4.65a5.91 5.91 0 0 0 4.205 1.746 5.916 5.916 0 0 0 5.217-3.102 145.162 145.162 0 0 1 21.586-30.047 3.889 3.889 0 0 1 2.873-1.245c1.06 0 2.056.412 2.804 1.161l9.846 9.845a5.879 5.879 0 0 0 4.186 1.738 6.007 6.007 0 0 0 4.912-2.564 150.25 150.25 0 0 1 13.256-16.353 3.902 3.902 0 0 1 2.88-1.247c1.059 0 2.054.412 2.802 1.16l.544.544a134.868 134.868 0 0 0 4.856-31.126c.105-2.793-2.157-5.107-4.952-5.107h-6.576c-3.3 0-5.69-3.173-4.745-6.335a145.844 145.844 0 0 0 6.024-36.762c.097-2.793-2.159-5.109-4.954-5.109h-13.924c-3.093 0-5.4-2.799-4.864-5.844a150.95 150.95 0 0 0 2.204-21.076c.095-2.795-2.158-5.113-4.955-5.113h-16.993c-2.451 0-4.517-1.797-4.888-4.22-5.899-38.537-31.696-69.97-65.817-81.983a4.89 4.89 0 0 0-3.239 0c-34.121 12.013-59.918 43.446-65.817 81.983-.371 2.423-2.437 4.22-4.888 4.22h-16.993c-2.797 0-5.05 2.318-4.955 5.113a150.95 150.95 0 0 0 2.204 21.076c.536 3.046-1.771 5.844-4.864 5.844h-13.924c-2.795 0-5.051 2.315-4.954 5.109.44 12.7 2.514 25.013 6.024 36.762.945 3.162-1.445 6.335-4.745 6.335h-6.576c-2.795 0-5.057 2.315-4.952 5.107a134.868 134.868 0 0 0 4.856 31.126z"/><path fill="#017b4e" d="M135.341 204.606a3.936 3.936 0 0 1 2.802-1.16c1.105 0 2.128.443 2.88 1.247a150.486 150.486 0 0 1 13.256 16.353 6.008 6.008 0 0 0 4.912 2.564 5.882 5.882 0 0 0 4.186-1.738l9.846-9.845a3.936 3.936 0 0 1 2.804-1.161c1.104 0 2.124.442 2.873 1.245.507.543.995 1.102 1.493 1.652-4.431-12.641-7.044-25.962-7.562-39.74-.105-2.793 2.157-5.107 4.952-5.107h6.576c3.3 0 5.69-3.173 4.745-6.335a145.844 145.844 0 0 1-6.024-36.762c-.097-2.793 2.159-5.109 4.954-5.109h13.924c3.093 0 5.4-2.799 4.864-5.844a150.95 150.95 0 0 1-2.204-21.076c-.095-2.795 2.158-5.113 4.955-5.113h16.993c2.451 0 4.517-1.797 4.888-4.22 4.69-30.638 21.965-56.774 45.993-72.243-6.194-3.988-12.831-7.278-19.824-9.74a4.89 4.89 0 0 0-3.239 0c-34.121 12.013-59.918 43.446-65.817 81.983-.371 2.423-2.437 4.22-4.888 4.22h-16.993c-2.797 0-5.05 2.318-4.955 5.113a150.95 150.95 0 0 0 2.204 21.076c.536 3.045-1.771 5.844-4.864 5.844h-13.924c-2.795 0-5.051 2.315-4.954 5.109.44 12.7 2.514 25.013 6.024 36.762.945 3.162-1.445 6.335-4.745 6.335h-6.576c-2.795 0-5.057 2.314-4.952 5.107a134.868 134.868 0 0 0 4.856 31.126z"/><path fill="#026841" d="M248.5 218.956v66.892a145.949 145.949 0 0 1 6.514 25.267h1.973a145.925 145.925 0 0 1 6.514-25.267V170.529c23.574-3.622 41.686-24.043 41.686-48.615 0-4.142-3.357-7.5-7.5-7.5s-7.5 3.358-7.5 7.5c0 16.273-11.433 29.918-26.686 33.347V63.774c0-4.142-3.357-7.5-7.5-7.5s-7.5 3.358-7.5 7.5v48.513c-11.772-3.286-20.437-14.099-20.437-26.905 0-4.142-3.357-7.5-7.5-7.5s-7.5 3.358-7.5 7.5c0 21.116 15.327 38.707 35.437 42.267v76.21c-24.379-3.32-43.141-22.566-43.141-45.742 0-4.142-3.357-7.5-7.5-7.5s-7.5 3.358-7.5 7.5c-.001 31.405 25.466 57.354 58.14 60.839z"/><g><path fill="#09a76d" d="M256.53 314.395c-4.017-28.341-15.79-54.804-35.568-76.127-1.901-2.049-5.137-2.086-7.113-.11l-4.65 4.65c-2.334 2.334-6.267 1.78-7.835-1.124a145.813 145.813 0 0 0-21.735-30.254c-1.907-2.044-5.139-2.086-7.115-.109l-9.845 9.846c-2.187 2.187-5.798 1.839-7.572-.694a150.96 150.96 0 0 0-13.344-16.462c-1.909-2.043-5.142-2.089-7.119-.112l-12.016 12.016c-1.733 1.733-4.465 1.923-6.44.472-31.421-23.078-71.889-27.064-104.511-11.431a4.887 4.887 0 0 0-2.291 2.291c-15.633 32.622-11.648 73.09 11.431 104.511a4.953 4.953 0 0 1-.472 6.44L8.319 330.213c-1.977 1.977-1.932 5.21.112 7.119a150.841 150.841 0 0 0 16.462 13.344c2.533 1.774 2.88 5.385.694 7.572l-9.846 9.846c-1.976 1.976-1.934 5.209.109 7.115a145.914 145.914 0 0 0 30.254 21.735c2.904 1.568 3.458 5.501 1.124 7.835l-4.65 4.65c-1.976 1.976-1.939 5.212.11 7.113 49.012 45.46 125.175 48.647 188.894 12.501a5.003 5.003 0 0 0 1.881-1.881c12.207-21.52 19.922-44.458 23.043-67.291-2.107-15.423-2.092-30.734.024-45.476z"/><path fill="#02905d" d="M219.598 425.784c-52.173 14.188-106.47 4.37-144.458-30.865-2.049-1.901-2.086-5.137-.11-7.113l4.65-4.65c2.334-2.334 1.78-6.267-1.124-7.835a145.813 145.813 0 0 1-30.254-21.735c-2.043-1.907-2.086-5.139-.109-7.115l9.846-9.846c2.187-2.187 1.839-5.797-.694-7.572a150.96 150.96 0 0 1-16.462-13.344c-2.043-1.909-2.089-5.142-.112-7.119l1.36-1.36c-.278-.265-.561-.522-.833-.794a7.498 7.498 0 0 1 .001-10.606 7.5 7.5 0 0 1 10.606 0c.272.272.553.532.833.794l.048-.048c1.733-1.733 1.923-4.465.472-6.44-20.483-27.887-25.912-62.897-15.948-93.227-8.862 1.465-17.497 4.145-25.643 8.049a4.885 4.885 0 0 0-2.29 2.291c-15.633 32.622-11.648 73.09 11.431 104.511a4.953 4.953 0 0 1-.472 6.44L8.319 330.213c-1.977 1.977-1.931 5.21.112 7.119a150.841 150.841 0 0 0 16.462 13.344c2.533 1.774 2.88 5.385.694 7.572l-9.846 9.846c-1.976 1.976-1.934 5.209.109 7.115a145.914 145.914 0 0 0 30.254 21.735c2.904 1.568 3.458 5.501 1.124 7.835l-4.65 4.65c-1.976 1.976-1.939 5.212.11 7.113 47.573 44.125 120.724 48.42 183.248 15.581z"/><g><path fill="#02905d" d="M310.635 241.684a145.813 145.813 0 0 1 21.735-30.254c1.907-2.044 5.139-2.086 7.115-.109l9.846 9.846c2.187 2.187 5.798 1.839 7.572-.694 4-5.71 8.443-11.217 13.344-16.462 1.909-2.043 5.142-2.089 7.119-.112l12.016 12.016c1.733 1.733 4.465 1.923 6.44.472 31.421-23.078 71.889-27.064 104.511-11.431a4.887 4.887 0 0 1 2.29 2.29c15.633 32.622 11.648 73.09-11.431 104.511-1.451 1.975-1.261 4.707.472 6.44l12.016 12.016c1.977 1.977 1.932 5.21-.112 7.119a150.841 150.841 0 0 1-16.462 13.344c-2.533 1.774-2.88 5.385-.694 7.572l9.846 9.846c1.976 1.976 1.934 5.209-.109 7.115a145.914 145.914 0 0 1-30.254 21.735c-2.904 1.568-3.458 5.501-1.124 7.835l4.65 4.65c1.976 1.976 1.939 5.212-.11 7.113-49.012 45.46-125.175 48.647-188.894 12.501a5.003 5.003 0 0 1-1.881-1.881c-36.146-63.719-32.959-139.882 12.501-188.894 1.901-2.049 5.137-2.086 7.113-.11l4.65 4.65c2.334 2.334 6.268 1.78 7.835-1.124z"/><path fill="#017b4e" d="M301.855 280.516c1.901-2.049 5.136-2.086 7.113-.11l4.65 4.65c2.334 2.334 6.267 1.78 7.835-1.124a145.813 145.813 0 0 1 21.735-30.254c1.907-2.044 5.139-2.086 7.115-.109l9.846 9.846c2.187 2.187 5.797 1.839 7.572-.694 4-5.71 8.443-11.217 13.344-16.462 1.909-2.043 5.142-2.089 7.119-.112l12.016 12.016c1.733 1.733 4.465 1.923 6.44.472 31.421-23.078 71.889-27.064 104.511-11.431.295.142.568.32.826.516-.197-14.014-3.295-27.833-9.353-40.473a4.887 4.887 0 0 0-2.29-2.29c-32.622-15.633-73.09-11.648-104.511 11.431-1.975 1.451-4.707 1.261-6.44-.472L377.367 203.9c-1.977-1.977-5.21-1.932-7.119.112a150.841 150.841 0 0 0-13.344 16.462c-1.774 2.533-5.385 2.88-7.572.694l-9.846-9.846c-1.977-1.976-5.209-1.934-7.115.109a145.914 145.914 0 0 0-21.735 30.254c-1.568 2.904-5.502 3.458-7.835 1.124l-4.65-4.65c-1.976-1.976-5.212-1.939-7.113.11-39.38 42.456-47.031 105.285-24.88 162.751-5.785-44.402 5.836-88.31 35.697-120.504z"/><path fill="#017b4e" d="M470.702 295.829a7.498 7.498 0 0 0-10.606 0c-6.463 6.463-15.048 10.023-24.173 10.023-6.573 0-12.861-1.856-18.283-5.306l34.447-34.447a7.5 7.5 0 0 0-10.607-10.606l-64.698 64.698a33.932 33.932 0 0 1-5.306-18.283c0-9.125 3.56-17.709 10.023-24.173 2.929-2.929 2.929-7.677 0-10.606s-7.678-2.929-10.606 0c-9.297 9.296-14.417 21.648-14.417 34.779 0 10.599 3.34 20.688 9.514 29.074l-49.209 49.209c-18.295-23.046-18.286-55.134 1.11-74.531a7.5 7.5 0 0 0-10.607-10.606c-25.218 25.219-25.24 66.807-1.177 95.812L256 440.972l-50.107-50.107c24.062-29.005 24.041-70.593-1.177-95.812a7.5 7.5 0 0 0-10.607 0 7.5 7.5 0 0 0 0 10.606c19.397 19.397 19.405 51.485 1.11 74.531l-49.209-49.209c6.175-8.386 9.514-18.475 9.514-29.074 0-13.131-5.12-25.483-14.417-34.779-2.928-2.929-7.677-2.929-10.606 0s-2.929 7.678 0 10.606c6.464 6.463 10.023 15.048 10.023 24.173 0 6.573-1.856 12.862-5.306 18.283L70.52 255.493a7.5 7.5 0 0 0-10.607 10.606l34.447 34.447a33.932 33.932 0 0 1-18.283 5.306c-9.125 0-17.71-3.56-24.173-10.023a7.5 7.5 0 0 0-10.606 0 7.498 7.498 0 0 0-.001 10.606c9.296 9.296 21.648 14.417 34.78 14.417 10.598 0 20.688-3.34 29.074-9.515l53.817 53.817c-19.587 14.891-46.462 14.549-62.85-1.84a7.5 7.5 0 0 0-10.607 10.606c11.401 11.4 26.526 17.041 42.012 17.041 14.681 0 29.68-5.083 42.125-15.128l78.853 78.853v47.616c0 4.142 3.357 7.5 7.5 7.5s7.5-3.358 7.5-7.5v-47.616l78.853-78.853c12.445 10.046 27.442 15.128 42.125 15.128 15.483 0 30.612-5.642 42.012-17.041a7.5 7.5 0 0 0-10.607-10.606c-16.387 16.388-43.263 16.73-62.85 1.84l28.46-28.46.007-.006.006-.007 25.344-25.344c8.386 6.175 18.475 9.515 29.074 9.515 13.132 0 25.484-5.12 34.78-14.417a7.5 7.5 0 0 0-.003-10.606z"/></g></g></svg>