<svg xmlns="http://www.w3.org/2000/svg" x="0" y="0" enable-background="new 0 0 512 512" version="1.1" viewBox="0 0 512 512" xml:space="preserve"><path fill="#A3E261" d="M412.448 366.471c0 90.985-74.082 146.164-165.215 145.524a226.048 226.048 0 0 1-12.526-.446h-.011c-84.813-5.532-151.524-60.996-150.301-147.444.64-44.778 19.223-85.191 48.87-114.414 12.8-12.606 20.972-29.064 23.418-46.87.08-.526.149-.994.229-1.406 8.709-45.475 46.367-79.682 91.499-79.682h.48c44.915.24 82.345 34.367 91.019 79.682.046.206.08.423.114.663 2.949 18.389 11.395 35.429 24.549 48.618 29.577 29.658 47.875 70.575 47.875 115.775z"/><path fill="#93CC52" d="m248.89 121.733-1.143 34.801s-15.629 11.835-17.372 41.167c-4.572 76.954-64.573 104.383-64.573 182.099s28.001 108.194 68.916 131.737l-.011.011h-.011c-84.814-5.532-151.524-60.996-150.301-147.444.64-44.778 19.223-85.191 48.87-114.414 12.8-12.606 20.972-29.064 23.418-46.87.08-.526.149-.994.229-1.406 8.709-45.475 46.367-79.682 91.499-79.682l.479.001z"/><path fill="#B25719" d="M246.627 154.299a8.57 8.57 0 0 1-8.451-10.057c.136-.778 13.257-78.168-19.014-110.439a8.57 8.57 0 0 1 0-12.121 8.57 8.57 0 0 1 12.121 0c38.585 38.585 24.399 122.002 23.777 125.533a8.578 8.578 0 0 1-8.433 7.084z"/><path fill="#93CC52" d="M228.496 141.119c5.048-.051 8.389-.114 11.401-.314 2.96-.17 5.391-.28 7.845-.283 2.453-.017 4.88.095 7.834.262 3.009.199 6.348.271 11.411.337.015 5.097-2.673 9.214-6.25 12.135-3.626 2.896-8.321 4.42-12.995 4.407-4.673-.008-9.364-1.53-12.985-4.43-3.573-2.924-6.26-7.032-6.261-12.114z"/><path fill="#B25719" d="M276.431 69.153c-30.046 0-43.912-20.309-44.6-21.349a6.286 6.286 0 0 1 10.461-6.971c.693 1.014 16.202 22.948 51.618 13.223a6.283 6.283 0 0 1 7.726 4.398 6.285 6.285 0 0 1-4.398 7.726c-7.649 2.099-14.577 2.973-20.807 2.973z"/><path fill="#2FCC6E" d="m384.905 76.859 42.718-45.119-56.52-25.811c-34.697-15.846-75.534 1.263-88.576 37.108l-1.178 3.239a26.536 26.536 0 0 0 5.221 26.832l2.307 2.561c25.529 28.34 69.803 28.889 96.028 1.19z"/></svg>