<svg xmlns="http://www.w3.org/2000/svg" viewBox="-25 0 511 512"><path fill="#afdc82" d="M156.465 10.79c-16.973 9.53-28.621 24.398-33.508 40.3 16.121 4.11 34.883 1.902 51.852-7.625 14.437-8.106 25.023-20.07 30.87-33.254 1.637-3.691-.742-7.938-4.75-8.461-14.3-1.871-30.027.937-44.464 9.04zm0 0"/><path fill="#96cd82" d="M200.93 1.75c-14.301-1.871-30.028.938-44.465 9.04-16.973 9.53-28.621 24.398-33.508 40.3l82.469-46.281a6.03 6.03 0 0 0-4.496-3.059zm0 0"/><path fill="#d29b6e" d="M105.914 3.238c-2.766-3.61-7.926-4.312-11.547-1.55-3.62 2.761-4.308 7.933-1.55 11.55.234.301 23.027 30.672 23.027 74.762v20.3h16.476V88c0-49.602-25.328-83.352-26.406-84.762zm0 0"/><path fill="#b67f5f" d="M105.914 3.238c-2.766-3.61-7.926-4.312-11.547-1.55-3.62 2.761-4.308 7.933-1.55 11.55.101.133 4.511 6.008 9.449 16.262a8.233 8.233 0 0 0 7.402 4.648c6.094 0 10.047-6.421 7.398-11.91-5.59-11.586-10.68-18.383-11.152-19zm0 0"/><path fill="#ffe17d" d="M124.082 83.582c16.477 0 41.195 8.238 49.434 49.434 6.46 32.316 74.414 70.035 74.414 140.425 0 71.77-57.668 180.887-90.89 180.887H91.394C58.172 454.328.5 345.211.5 273.441c0-70.386 67.953-108.109 74.418-140.425 8.238-41.196 32.953-49.434 49.434-49.434"/><path fill="#ffe17d" d="M338.29 141.254c16.48 0 41.194 8.238 49.433 49.434 6.465 32.316 74.418 70.035 74.418 140.425 0 71.77-57.672 180.887-90.895 180.887h-65.644c-33.223 0-90.891-109.117-90.891-180.887 0-70.39 67.95-108.11 74.414-140.425 8.238-41.196 32.957-49.434 49.434-49.434"/><path fill="#fff6d8" d="M338.559 141.254h-.27c.043 0 .094.004.137.004s.09-.004.133-.004zM401.305 241.14c-14.215-16.62-26.489-30.98-29.739-47.222-1.812-9.063-4.55-16.418-8.187-22.059-4.942-7.672-16.848-4.172-16.848 4.957V314.27h-16.48V177.238c0-9.14-12.012-12.675-16.863-4.93-3.497 5.583-6.141 12.786-7.907 21.61-3.25 16.242-15.523 30.602-29.738 47.223-20.793 24.312-44.356 51.87-44.356 89.972 0 72.293 56.825 162.957 74.47 164.41h17.257c3.531 0 6.621-1.941 8.684-4.808a8.22 8.22 0 0 1 6.691-3.43 8.22 8.22 0 0 1 6.695 3.434c2.063 2.867 5.153 4.804 8.684 4.804h17.578c17.59-1.449 74.414-92.117 74.414-164.41 0-38.101-23.562-65.66-44.355-89.972zm0 0"/><path fill="#ffd164" d="M124.082 83.582c.043 0 .09.004.133.004.043 0 .09-.004.133-.004zM48.137 286.117c-7.883-70.367 55.422-115.64 58.226-148.664 2.746-32.375 17.38-46.316 31.434-51.879-4.777-1.441-9.445-1.976-13.582-1.988-16.477.047-41.082 8.344-49.3 49.43C68.452 165.332.5 203.05.5 273.44c0 71.77 57.672 180.887 90.895 180.887h55.27c-35.477-15.996-91.372-104.324-98.528-168.21zm0 0"/><path fill="#ffedb1" d="M330.05 157.73h16.481v156.54h-16.48zm0 0"/><path fill="#d29b6e" d="M338.29 182.45a8.238 8.238 0 0 1-8.24-8.243v-31.754c0-47.14 25.466-79.187 26.552-80.527 2.847-3.535 8.039-4.106 11.586-1.227a8.236 8.236 0 0 1 1.242 11.57c-.235.286-22.899 29.07-22.899 70.184v31.758a8.238 8.238 0 0 1-8.242 8.238zm0 0"/><path fill="#b67f5f" d="M356.602 61.926c-.47.582-5.516 6.953-11.082 17.812-2.82 5.492 1.16 12.082 7.335 12.082a8.256 8.256 0 0 0 7.333-4.488c4.843-9.477 9.14-14.941 9.242-15.062a8.236 8.236 0 0 0-1.243-11.57c-3.546-2.88-8.738-2.31-11.585 1.226zm0 0"/><path fill="#ffe17d" d="M359.121 306.031h-41.66c-9.95 0-16.918 9.828-13.625 19.215l19.266 54.93h30.375l19.27-54.93c3.288-9.387-3.677-19.215-13.626-19.215zm0 0"/><path fill="#d7de80" d="M321.813 364.25c0 16.18 4.199 30.84 11.011 41.652 2.48 3.934 8.453 3.934 10.934 0 6.812-10.812 11.012-25.472 11.012-41.652 0-15.938-4.079-30.406-10.715-41.172-2.692-4.363-8.836-4.363-11.528 0-6.636 10.766-10.715 25.235-10.715 41.172zm0 0"/><g fill="#d29b6e"><path d="M321.813 314.27h-8.239a8.24 8.24 0 0 1-8.238-8.239c0-4.55 3.687-8.242 8.238-8.242h8.238c4.551 0 8.239 3.691 8.239 8.242a8.24 8.24 0 0 1-8.238 8.239zM363.008 314.27h-8.238a8.24 8.24 0 0 1-8.239-8.239c0-4.55 3.688-8.242 8.239-8.242h8.238c4.55 0 8.238 3.691 8.238 8.242a8.24 8.24 0 0 1-8.238 8.239zm0 0"/></g></svg>